<?xml version="1.0" encoding="UTF-8"?><svg xmlns="http://www.w3.org/2000/svg" xmlns:xlink="http://www.w3.org/1999/xlink" viewBox="0 0 537.97 204.44"><defs><clipPath id="b"><rect x="-720.33" y="10" width="595.29" height="841.89" fill="none"/></clipPath><clipPath id="c"><rect x="-1042.43" y="10" width="1269.98" height="846.66" fill="none"/></clipPath><radialGradient id="d" cx="-463.32" cy="524.78" fx="-463.32" fy="524.78" r="1890.66" gradientUnits="userSpaceOnUse"><stop offset="0" stop-color="#fff" stop-opacity="0"/><stop offset=".18" stop-color="#fbf7f7" stop-opacity=".03"/><stop offset=".35" stop-color="#efe2e2" stop-opacity=".12"/><stop offset=".53" stop-color="#dcbebe" stop-opacity=".28"/><stop offset=".7" stop-color="#c18b8c" stop-opacity=".49"/><stop offset=".88" stop-color="#9e4a4d" stop-opacity=".77"/><stop offset="1" stop-color="#821518"/></radialGradient><radialGradient id="e" cx="-397.27" cy="484.12" fx="-397.27" fy="484.12" r="745.32" gradientUnits="userSpaceOnUse"><stop offset="0" stop-color="#df2826"/><stop offset=".09" stop-color="#cc2422"/><stop offset=".35" stop-color="#a01d18"/><stop offset=".57" stop-color="#801711"/><stop offset=".76" stop-color="#6d140d"/><stop offset=".9" stop-color="#66130c"/></radialGradient><radialGradient id="f" cx="-388.81" cy="733.08" fx="-388.81" fy="733.08" r="1272.51" gradientUnits="userSpaceOnUse"><stop offset="0" stop-color="#fff" stop-opacity="0"/><stop offset=".4" stop-color="#c79798" stop-opacity=".44"/><stop offset=".8" stop-color="#95393c" stop-opacity=".84"/><stop offset="1" stop-color="#821518"/></radialGradient><linearGradient id="g" x1="-440.16" y1="-8.98" x2="-440.16" y2="790.61" gradientUnits="userSpaceOnUse"><stop offset="0" stop-color="#fff"/><stop offset="1" stop-color="#2f2a2b" stop-opacity="0"/></linearGradient><linearGradient id="h" x1="-573.23" y1="582.74" x2="-234.68" y2="293.05" gradientUnits="userSpaceOnUse"><stop offset="0" stop-color="#821518"/><stop offset=".16" stop-color="#8f2e30" stop-opacity=".89"/><stop offset=".46" stop-color="#b27071" stop-opacity=".61"/><stop offset=".87" stop-color="#ebd9da" stop-opacity=".16"/><stop offset="1" stop-color="#fff" stop-opacity="0"/></linearGradient><linearGradient id="i" x1="-385.46" y1="569.75" x2="-56.96" y2="288.66" xlink:href="#h"/><linearGradient id="j" x1="176.4" y1="-212.41" x2="-427.59" y2="439.91" xlink:href="#h"/><clipPath id="k"><rect x="-720.33" y="10" width="599.54" height="841.89" fill="none"/></clipPath><clipPath id="l"><rect x="-720.33" y="10" width="599.54" height="569.06" fill="none"/></clipPath><linearGradient id="m" x1="111.04" y1="502.69" x2="-192.41" y2="199.24" gradientUnits="userSpaceOnUse"><stop offset="0" stop-color="#000" stop-opacity="0"/><stop offset="1" stop-color="#010101"/></linearGradient></defs><g isolation="isolate"><g id="a"><g mix-blend-mode="multiply" opacity=".27"><g clip-path="url(#b)"><g clip-path="url(#c)"><rect x="-1042.43" y="10" width="1269.98" height="846.66" fill="url(#d)" mix-blend-mode="multiply"/><rect x="-1042.43" y="10" width="1269.98" height="846.66" fill="url(#e)"/><rect x="-1042.43" y="10" width="1269.98" height="846.66" fill="url(#f)" mix-blend-mode="multiply"/><polygon points="-1117.99 895.35 237.68 895.35 229.44 522.64 -527.14 107.85 -1117.99 466.62 -1117.99 895.35" fill="url(#g)" mix-blend-mode="overlay"/><polygon points="-642.45 -49.62 -1064.27 -49.62 -985.81 22.73 -118.28 890.27 297.43 890.27 -642.45 -49.62" fill="url(#h)" mix-blend-mode="multiply"/><polygon points="390.99 895.35 390.99 821.13 -457.43 -27.28 -860.01 -14.16 49.5 895.35 390.99 895.35" fill="url(#i)" mix-blend-mode="multiply"/><rect x="-1117.99" y="-49.62" width="1412.36" height="944.96" fill="url(#j)" mix-blend-mode="multiply"/><rect x="-1042.43" y="10" width="1269.98" height="846.66" fill="none"/></g></g></g><g clip-path="url(#k)"><g clip-path="url(#l)"><polygon points="-121.25 99.3 -214.77 233.59 16.31 579.06 218.55 579.06 -121.25 99.3" fill="url(#m)" mix-blend-mode="multiply" opacity=".13"/></g></g><path d="M211.51,87.12c.27-.15.52-.31.75-.48.75-.53,1.37-1.11,1.86-1.75.49-.65.86-1.35,1.09-2.1.23-.74.34-1.51.34-2.3,0-1.41-.24-2.71-.73-3.86-.5-1.19-1.3-2.21-2.38-3.03-1.05-.8-2.42-1.43-4.06-1.86-1.6-.42-3.56-.64-5.82-.64h-12.5v33.41h13.5c1.98,0,3.78-.26,5.34-.77,1.58-.52,2.93-1.25,4.01-2.18,1.1-.94,1.94-2.06,2.51-3.32.57-1.26.86-2.64.86-4.1,0-2-.57-3.66-1.7-4.93-.75-.85-1.78-1.55-3.08-2.08ZM199.03,91h4.37c.86,0,1.56.08,2.1.23.5.14.89.34,1.18.58.26.23.45.5.55.83.13.39.19.83.19,1.33,0,.44-.06.88-.17,1.31-.1.38-.28.71-.55,1.01-.27.3-.66.55-1.16.75-.52.21-1.23.32-2.1.32h-4.42v-6.37ZM204.16,84.33c-.6.11-1.3.16-2.07.16h-3.06v-6.3h3.54c.77,0,1.44.06,1.99.18.49.1.88.28,1.18.51.28.22.48.5.62.87.16.41.23.96.23,1.61s-.1,1.19-.29,1.59c-.18.38-.43.66-.76.88-.37.23-.84.4-1.39.5Z" fill="#e01e26"/><path d="M241.47,90.56c0,1.03-.13,1.95-.39,2.74-.25.77-.61,1.42-1.08,1.94-.46.51-1.03.92-1.69,1.19-.68.28-1.47.43-2.35.43s-1.67-.14-2.35-.43c-.66-.28-1.23-.68-1.69-1.2-.47-.53-.83-1.19-1.08-1.96-.26-.79-.39-1.71-.39-2.74v-19.44h-8.96v19.46c0,2.02.33,3.91.99,5.6.66,1.71,1.63,3.21,2.89,4.45,1.25,1.24,2.79,2.22,4.58,2.9,1.77.68,3.79,1.03,6.01,1.03s4.22-.35,5.99-1.03c1.78-.69,3.32-1.66,4.58-2.9,1.25-1.24,2.23-2.74,2.9-4.45.67-1.7,1-3.59,1-5.61v-19.46h-8.96v19.46Z" fill="#e01e26"/><polygon points="264.58 71.1 255.62 71.1 255.62 104.51 276.38 104.51 276.38 97.04 264.58 97.04 264.58 71.1" fill="#e01e26"/><polygon points="290.57 71.1 281.61 71.1 281.61 104.51 302.37 104.51 302.37 97.04 290.57 97.04 290.57 71.1" fill="#e01e26"/><polygon points="333.63 78.52 342.59 78.52 342.59 104.51 351.54 104.51 351.54 78.52 360.5 78.52 360.5 71.1 333.63 71.1 333.63 78.52" fill="#e01e26"/><polygon points="364.38 78.52 373.34 78.52 373.34 104.51 382.3 104.51 382.3 78.52 391.26 78.52 391.26 71.1 364.38 71.1 364.38 78.52" fill="#e01e26"/><rect x="307.68" y="71.1" width="22.07" height="7.25" fill="#e01e26"/><rect x="307.68" y="84.17" width="22.07" height="7.25" fill="#e01e26"/><rect x="307.58" y="97.27" width="22.07" height="7.25" fill="#e01e26"/><rect x="395.09" y="71.1" width="22.07" height="7.25" fill="#e01e26"/><rect x="395.09" y="84.17" width="22.07" height="7.25" fill="#e01e26"/><rect x="395.09" y="97.26" width="22.07" height="7.25" fill="#e01e26"/><path d="M143.1,59.93c-2.85,0-5.61.26-8.27.74l44.12,23.46c-2.34-13.66-17.5-24.2-35.85-24.2Z" fill="#e01e26"/><path d="M107.17,84.63l52.57,27.95c2.09-.84,4.06-1.82,5.89-2.95l-56.99-30.3c-.7,1.7-1.2,3.47-1.47,5.3Z" fill="#e01e26"/><path d="M111.61,74.09l59.32,31.54c1.38-1.28,2.61-2.66,3.68-4.12l-59.31-31.54c-1.38,1.28-2.61,2.66-3.69,4.12Z" fill="#e01e26"/><path d="M126.47,63.05c-2.08.83-4.04,1.81-5.85,2.92l56.97,30.29c.7-1.69,1.19-3.45,1.45-5.26l-52.57-27.95Z" fill="#e01e26"/><path d="M143.1,115.71c2.85,0,5.61-.26,8.27-.74l-44.12-23.46c2.34,13.66,17.5,24.2,35.85,24.2Z" fill="#e01e26"/><text transform="translate(420.88 77.11)" fill="#e01e26" font-family="OpenSans-Semibold, &apos;Open Sans&apos;" font-size="11.94" font-weight="600"><tspan x="0" y="0">®</tspan></text><text transform="translate(279.99 134.76)" fill="#e01e26" font-family="Montserrat-Bold, Montserrat" font-size="20.18" font-weight="700"><tspan x="0" y="0">Bo</tspan><tspan x="28.66" y="0" letter-spacing="0em">r</tspan><tspan x="37.28" y="0">n </tspan><tspan x="56.93" y="0" letter-spacing="-.02em">t</tspan><tspan x="65.37" y="0" letter-spacing="0em">o Build.</tspan></text></g></g></svg>