<svg xmlns="http://www.w3.org/2000/svg" xmlns:xlink="http://www.w3.org/1999/xlink" id="a" viewBox="53.72 60.77 63.09 48.46"><defs><linearGradient id="b" x1="2466.29" y1="89.12" x2="2447.28" y2="89.12" gradientTransform="translate(2568.71) rotate(-180) scale(1 -1)" gradientUnits="userSpaceOnUse"><stop offset=".11" stop-color="#8d5924"/><stop offset=".24" stop-color="#b4792b"/><stop offset=".36" stop-color="#d0a251"/><stop offset=".48" stop-color="#e6c370"/><stop offset=".58" stop-color="#f4d883"/><stop offset=".65" stop-color="#fae08a"/><stop offset=".76" stop-color="#fae08a"/><stop offset=".8" stop-color="#f5d981"/><stop offset=".88" stop-color="#eac76a"/><stop offset=".97" stop-color="#d9aa44"/><stop offset="1" stop-color="#d3a038"/></linearGradient><clipPath id="c"><polygon points="106.4 93.76 106.4 84.47 116.81 84.47 113.51 89.4 116.81 93.76 106.4 93.76" fill="none"/></clipPath><linearGradient id="d" x1="85.24" y1="32.91" x2="85.24" y2="117.83" gradientTransform="matrix(1,0,0,1,0,0)" xlink:href="#b"/><linearGradient id="e" x1="67.56" y1="84.71" x2="103.26" y2="84.71" gradientUnits="userSpaceOnUse"><stop offset="0" stop-color="#595a5c"/><stop offset="1" stop-color="#231f20"/></linearGradient><linearGradient id="f" x1="86.04" y1="57.14" x2="86.04" y2="83.09" gradientTransform="translate(14 158.07) rotate(-90)" xlink:href="#b"/><linearGradient id="g" x1="51.83" y1="84.94" x2="112.85" y2="84.94" gradientTransform="matrix(1,0,0,1,0,0)" xlink:href="#b"/><linearGradient id="h" x1="108.75" y1="86.9" x2="108.75" y2="109.4" gradientTransform="matrix(1,0,0,1,0,0)" xlink:href="#b"/><linearGradient id="i" x1="321.83" x2="302.82" gradientTransform="translate(-253.72)" xlink:href="#b"/><clipPath id="j"><polygon points="64.14 93.76 64.14 84.47 53.72 84.47 57.02 89.4 53.72 93.76 64.14 93.76" fill="none"/></clipPath><linearGradient id="k" x1="2253.21" y1="86.9" x2="2253.21" y2="109.4" gradientTransform="translate(2314.99) rotate(-180) scale(1 -1)" xlink:href="#b"/><linearGradient id="l" x1="85.25" y1="76.73" x2="85.25" y2="100.32" gradientTransform="matrix(1,0,0,1,0,0)" xlink:href="#b"/><linearGradient id="m" x1="85.28" y1="90.31" x2="85.28" y2="107.27" gradientTransform="matrix(1,0,0,1,0,0)" xlink:href="#b"/><linearGradient id="n" x1="82.04" y1="90.31" x2="82.04" y2="107.27" gradientTransform="matrix(1,0,0,1,0,0)" xlink:href="#b"/><linearGradient id="o" x1="88.44" y1="90.31" x2="88.44" y2="107.27" gradientTransform="matrix(1,0,0,1,0,0)" xlink:href="#b"/></defs><polygon points="106.4 93.76 106.4 84.47 116.81 84.47 113.51 89.4 116.81 93.76 106.4 93.76" fill="url(#b)"/><g clip-path="url(#c)"><rect x="107.25" y="85.51" width="9.56" height=".35" transform="translate(224.06 171.37) rotate(180)" fill="#333"/><rect x="107.25" y="92.37" width="9.56" height=".35" transform="translate(224.06 185.1) rotate(180)" fill="#333"/></g><polygon points="106.36 102.18 106.36 60.77 64.12 60.77 64.12 102.18 85.06 109.23 106.36 102.18" fill="url(#d)"/><polygon points="67.56 99.96 67.56 63.52 103.26 63.52 103.26 99.94 85.23 105.91 67.56 99.96" fill="#eeb51e"/><polygon points="67.56 99.96 67.56 63.52 103.26 63.52 103.26 99.94 85.23 105.91 67.56 99.96" fill="url(#e)"/><rect x="85.92" y="57.49" width=".24" height="29.11" transform="translate(158.07 -14) rotate(90)" fill="url(#f)"/><path d="M77.08,69.67h-.52v-.91h-.84v.91h-.53v-2.26h.53v.95h.84v-.95h.52v2.26Z" fill="#f3f3f3"/><path d="M78,69.67h-.52v-2.26h.52v2.26Z" fill="#f3f3f3"/><path d="M80.18,69.36c-.08.1-.19.18-.33.24-.14.07-.33.1-.55.1-.28,0-.51-.09-.68-.26-.17-.17-.26-.4-.26-.67v-.47c0-.27.08-.5.26-.67.17-.17.39-.26.66-.26.29,0,.51.06.66.19s.22.31.21.53h0s-.49,0-.49,0c0-.11-.03-.19-.09-.25-.06-.05-.15-.08-.27-.08s-.22.05-.29.14c-.08.1-.11.22-.11.38v.48c0,.16.04.28.11.38s.18.14.31.14c.1,0,.17,0,.23-.02.06-.01.1-.04.13-.06v-.4h-.4v-.35h.93v.9Z" fill="#f3f3f3"/><path d="M82.39,69.67h-.52v-.91h-.84v.91h-.53v-2.26h.53v.95h.84v-.95h.52v2.26Z" fill="#f3f3f3"/><path d="M85.42,68.74c0,.11-.02.22-.04.31-.03.1-.07.19-.13.27l.34.35-.34.26-.33-.33c-.07.03-.14.06-.22.08-.08.02-.16.03-.24.03-.29,0-.52-.09-.7-.27-.18-.18-.27-.41-.27-.69v-.41c0-.28.09-.51.27-.69.18-.18.41-.27.7-.27s.51.09.69.27c.18.18.27.41.27.69v.41ZM84.9,68.33c0-.16-.04-.29-.11-.4s-.18-.16-.32-.16-.25.05-.33.15c-.08.1-.11.24-.11.4v.41c0,.16.04.3.11.4.08.1.19.16.33.16s.24-.05.32-.16c.08-.1.11-.24.11-.4v-.41Z" fill="#f3f3f3"/><path d="M87.65,67.41v1.47c0,.26-.09.46-.26.61-.17.15-.4.22-.67.22s-.5-.07-.68-.22c-.17-.15-.26-.35-.26-.61v-1.47h.53v1.47c0,.14.04.25.11.32.07.07.17.11.3.11s.23-.04.3-.11.11-.18.11-.32v-1.47h.53Z" fill="#f3f3f3"/><path d="M89.15,69.23h-.67l-.13.44h-.55l.74-2.26h.28s0,0,0,0h.28l.74,2.26h-.55l-.13-.44ZM88.59,68.83h.43l-.21-.7h0l-.21.7Z" fill="#f3f3f3"/><path d="M90.52,69.27h.97v.4h-1.5v-2.26h.53v1.86Z" fill="#f3f3f3"/><path d="M92.33,69.67h-.52v-2.26h.52v2.26Z" fill="#f3f3f3"/><path d="M94.25,67.81h-.6v1.86h-.53v-1.86h-.59v-.4h1.71v.4Z" fill="#f3f3f3"/><path d="M95.32,68.4h0l.45-.99h.57l-.77,1.47v.8h-.52v-.82l-.76-1.45h.57l.45.99Z" fill="#f3f3f3"/><path d="M85.06,106.96l-18.8-6.33v-37.7h37.95v37.69l-19.15,6.34ZM67.47,99.76l17.59,5.92,17.94-5.94v-35.61h-35.53v35.62Z" fill="url(#g)"/><polygon points="106.4 84.37 111.11 89.12 106.4 89.12 106.4 84.37" fill="url(#h)"/><polygon points="64.14 93.76 64.14 84.47 53.72 84.47 57.02 89.4 53.72 93.76 64.14 93.76" fill="url(#i)"/><g clip-path="url(#j)"><rect x="53.72" y="85.51" width="9.56" height=".35" fill="#333"/><rect x="53.72" y="92.37" width="9.56" height=".35" fill="#333"/></g><polygon points="64.14 84.37 59.43 89.12 64.14 89.12 64.14 84.37" fill="url(#k)"/><rect x="59.43" y="89.12" width="51.63" height="9.04" fill="url(#l)"/><path d="M71.19,95.28c-.14.18-.33.33-.58.45-.25.12-.57.19-.96.19-.49,0-.88-.16-1.19-.48-.3-.32-.46-.73-.46-1.24v-.88c0-.5.15-.92.44-1.24.3-.32.68-.48,1.14-.48.5,0,.88.12,1.14.36.26.24.38.57.37.98v.02h-.86c0-.21-.05-.36-.15-.46s-.26-.15-.46-.15-.38.09-.51.27c-.13.18-.2.41-.2.7v.88c0,.29.06.53.19.7.13.18.31.27.54.27.17,0,.3-.01.4-.04.1-.03.17-.07.23-.12v-.75h-.7v-.65h1.61v1.66Z" fill="#010101"/><path d="M74.96,91.67v2.72c0,.48-.15.86-.45,1.13s-.69.41-1.17.41-.88-.14-1.18-.41-.45-.65-.45-1.13v-2.72h.92v2.72c0,.26.06.46.19.59s.3.2.52.2.39-.07.52-.2c.12-.13.19-.33.19-.59v-2.72h.92Z" fill="#010101"/><path d="M77.57,95.04h-1.17l-.23.81h-.96l1.28-4.19h.49s0,0,0,0h.49l1.29,4.19h-.96l-.23-.81ZM76.61,94.3h.75l-.37-1.3h-.02l-.37,1.3Z" fill="#010101"/><path d="M79.95,94.25v1.61h-.91v-4.19h1.37c.46,0,.82.11,1.08.34s.4.53.4.92c0,.22-.05.4-.16.56-.11.16-.27.28-.47.38.24.07.42.19.52.36s.16.38.16.63v.26c0,.11.01.23.05.37.03.14.08.24.16.3v.06h-.94c-.07-.06-.12-.16-.14-.31-.02-.15-.03-.29-.03-.42v-.25c0-.2-.05-.35-.15-.46-.1-.11-.24-.16-.43-.16h-.49ZM79.95,93.5h.46c.18,0,.32-.04.42-.13.1-.09.15-.22.15-.38s-.05-.31-.15-.41c-.1-.11-.24-.16-.42-.16h-.46v1.09Z" fill="#010101"/><path d="M84.63,95.04h-1.17l-.23.81h-.96l1.28-4.19h.49s0,0,0,0h.49l1.29,4.19h-.96l-.23-.81ZM83.67,94.3h.75l-.37-1.3h-.02l-.37,1.3Z" fill="#010101"/><path d="M89.38,95.86h-.91l-1.44-2.64h-.02v2.64h-.91v-4.19h.91l1.44,2.63h.02v-2.63h.91v4.19Z" fill="#010101"/><path d="M92.66,92.42h-1.04v3.44h-.91v-3.44h-1.02v-.75h2.97v.75Z" fill="#010101"/><path d="M95.33,94.06h-1.38v1.04h1.66v.75h-2.57v-4.19h2.58v.75h-1.66v.9h1.38v.75Z" fill="#010101"/><path d="M98.42,94.06h-1.38v1.04h1.66v.75h-2.57v-4.19h2.58v.75h-1.66v.9h1.38v.75Z" fill="#010101"/><path d="M99.21,95.86v-4.19h1.44c.46,0,.85.16,1.16.48s.47.73.47,1.24v.75c0,.5-.16.92-.47,1.24-.31.32-.7.48-1.16.48h-1.44ZM100.12,92.42v2.69h.53c.21,0,.38-.09.51-.27.13-.18.2-.41.2-.7v-.76c0-.28-.07-.51-.2-.69s-.3-.27-.51-.27h-.53Z" fill="#010101"/><path d="M71.19,95.28c-.14.18-.33.33-.58.45-.25.12-.57.19-.96.19-.49,0-.88-.16-1.19-.48-.3-.32-.46-.73-.46-1.24v-.88c0-.5.15-.92.44-1.24.3-.32.68-.48,1.14-.48.5,0,.88.12,1.14.36.26.24.38.57.37.98v.02h-.86c0-.21-.05-.36-.15-.46s-.26-.15-.46-.15-.38.09-.51.27c-.13.18-.2.41-.2.7v.88c0,.29.06.53.19.7.13.18.31.27.54.27.17,0,.3-.01.4-.04.1-.03.17-.07.23-.12v-.75h-.7v-.65h1.61v1.66Z" fill="#333"/><path d="M74.96,91.67v2.72c0,.48-.15.86-.45,1.13s-.69.41-1.17.41-.88-.14-1.18-.41-.45-.65-.45-1.13v-2.72h.92v2.72c0,.26.06.46.19.59s.3.2.52.2.39-.07.52-.2c.12-.13.19-.33.19-.59v-2.72h.92Z" fill="#333"/><path d="M77.57,95.04h-1.17l-.23.81h-.96l1.28-4.19h.49s0,0,0,0h.49l1.29,4.19h-.96l-.23-.81ZM76.61,94.3h.75l-.37-1.3h-.02l-.37,1.3Z" fill="#333"/><path d="M79.95,94.25v1.61h-.91v-4.19h1.37c.46,0,.82.11,1.08.34s.4.53.4.92c0,.22-.05.4-.16.56-.11.16-.27.28-.47.38.24.07.42.19.52.36s.16.38.16.63v.26c0,.11.01.23.05.37.03.14.08.24.16.3v.06h-.94c-.07-.06-.12-.16-.14-.31-.02-.15-.03-.29-.03-.42v-.25c0-.2-.05-.35-.15-.46-.1-.11-.24-.16-.43-.16h-.49ZM79.95,93.5h.46c.18,0,.32-.04.42-.13.1-.09.15-.22.15-.38s-.05-.31-.15-.41c-.1-.11-.24-.16-.42-.16h-.46v1.09Z" fill="#333"/><path d="M84.63,95.04h-1.17l-.23.81h-.96l1.28-4.19h.49s0,0,0,0h.49l1.29,4.19h-.96l-.23-.81ZM83.67,94.3h.75l-.37-1.3h-.02l-.37,1.3Z" fill="#333"/><path d="M89.38,95.86h-.91l-1.44-2.64h-.02v2.64h-.91v-4.19h.91l1.44,2.63h.02v-2.63h.91v4.19Z" fill="#333"/><path d="M92.66,92.42h-1.04v3.44h-.91v-3.44h-1.02v-.75h2.97v.75Z" fill="#333"/><path d="M95.33,94.06h-1.38v1.04h1.66v.75h-2.57v-4.19h2.58v.75h-1.66v.9h1.38v.75Z" fill="#333"/><path d="M98.42,94.06h-1.38v1.04h1.66v.75h-2.57v-4.19h2.58v.75h-1.66v.9h1.38v.75Z" fill="#333"/><path d="M99.21,95.86v-4.19h1.44c.46,0,.85.16,1.16.48s.47.73.47,1.24v.75c0,.5-.16.92-.47,1.24-.31.32-.7.48-1.16.48h-1.44ZM100.12,92.42v2.69h.53c.21,0,.38-.09.51-.27.13-.18.2-.41.2-.7v-.76c0-.28-.07-.51-.2-.69s-.3-.27-.51-.27h-.53Z" fill="#333"/><path d="M73.52,81.38v-7.38h2.42c.92,0,1.63.17,2.14.51.51.34.77.85.77,1.52,0,.35-.08.66-.24.94-.16.27-.42.48-.76.62.44.09.76.29.98.59.21.3.32.64.32,1.03,0,.72-.24,1.27-.73,1.63-.48.37-1.18.55-2.08.55h-2.82ZM75.23,77.08h.67c.41,0,.72-.07.92-.21s.3-.36.3-.64c0-.31-.1-.54-.29-.69-.2-.14-.5-.22-.9-.22h-.71v1.76ZM75.23,78.21v1.85h1.1c.37,0,.64-.07.82-.22s.27-.36.27-.66c0-.31-.08-.55-.24-.71-.16-.16-.42-.25-.79-.26h-1.16Z" fill="#010101"/><path d="M84.46,78.22h-2.6v1.84h3.12v1.32h-4.83v-7.38h4.84v1.32h-3.12v1.59h2.6v1.32Z" fill="#010101"/><path d="M89.75,79.43c0-.26-.09-.47-.26-.61-.17-.14-.49-.29-.94-.45-.92-.3-1.6-.61-2.04-.95-.45-.34-.67-.82-.67-1.45s.26-1.12.78-1.5c.52-.38,1.18-.57,1.97-.57.84,0,1.52.2,2.03.59.51.39.76.95.75,1.67v.03h-1.67c0-.35-.09-.6-.28-.76s-.47-.24-.86-.24c-.31,0-.56.08-.74.23-.18.15-.27.34-.27.56s.09.39.28.52.53.29,1.03.49c.86.25,1.5.56,1.94.93.44.37.66.87.66,1.5s-.25,1.16-.76,1.52c-.51.37-1.18.55-2.02.55s-1.54-.2-2.12-.59-.86-1.01-.84-1.86v-.03h1.68c0,.43.11.74.32.92.21.18.54.27.97.27.36,0,.63-.07.8-.21.18-.14.26-.33.26-.56Z" fill="#010101"/><path d="M97.53,75.32h-1.95v6.07h-1.71v-6.07h-1.92v-1.32h5.58v1.32Z" fill="#010101"/><path d="M73.52,81.38v-7.38h2.42c.92,0,1.63.17,2.14.51.51.34.77.85.77,1.52,0,.35-.08.66-.24.94-.16.27-.42.48-.76.62.44.09.76.29.98.59.21.3.32.64.32,1.03,0,.72-.24,1.27-.73,1.63-.48.37-1.18.55-2.08.55h-2.82ZM75.23,77.08h.67c.41,0,.72-.07.92-.21s.3-.36.3-.64c0-.31-.1-.54-.29-.69-.2-.14-.5-.22-.9-.22h-.71v1.76ZM75.23,78.21v1.85h1.1c.37,0,.64-.07.82-.22s.27-.36.27-.66c0-.31-.08-.55-.24-.71-.16-.16-.42-.25-.79-.26h-1.16Z" fill="#f3f3f3"/><path d="M84.46,78.22h-2.6v1.84h3.12v1.32h-4.83v-7.38h4.84v1.32h-3.12v1.59h2.6v1.32Z" fill="#f3f3f3"/><path d="M89.75,79.43c0-.26-.09-.47-.26-.61-.17-.14-.49-.29-.94-.45-.92-.3-1.6-.61-2.04-.95-.45-.34-.67-.82-.67-1.45s.26-1.12.78-1.5c.52-.38,1.18-.57,1.97-.57.84,0,1.52.2,2.03.59.51.39.76.95.75,1.67v.03h-1.67c0-.35-.09-.6-.28-.76s-.47-.24-.86-.24c-.31,0-.56.08-.74.23-.18.15-.27.34-.27.56s.09.39.28.52.53.29,1.03.49c.86.25,1.5.56,1.94.93.44.37.66.87.66,1.5s-.25,1.16-.76,1.52c-.51.37-1.18.55-2.02.55s-1.54-.2-2.12-.59-.86-1.01-.84-1.86v-.03h1.68c0,.43.11.74.32.92.21.18.54.27.97.27.36,0,.63-.07.8-.21.18-.14.26-.33.26-.56Z" fill="#f3f3f3"/><path d="M97.53,75.32h-1.95v6.07h-1.71v-6.07h-1.92v-1.32h5.58v1.32Z" fill="#f3f3f3"/><path d="M74.12,85.23v1.35h-.91v-3.93h1.5c.47,0,.83.12,1.11.36s.41.55.41.94-.14.7-.41.93-.64.35-1.11.35h-.59ZM74.12,84.53h.59c.2,0,.35-.05.45-.16.1-.11.16-.25.16-.42s-.05-.32-.16-.43c-.1-.11-.25-.17-.45-.17h-.59v1.18Z" fill="#010101"/><path d="M77.64,85.07v1.5h-.91v-3.93h1.37c.46,0,.82.11,1.08.32.27.21.4.5.4.86,0,.2-.05.38-.16.52-.11.15-.26.26-.47.36.24.07.41.18.52.34.11.16.16.36.16.59v.25c0,.1.01.22.05.35.03.13.08.22.16.28v.05h-.94c-.07-.06-.12-.15-.14-.29-.02-.14-.03-.27-.03-.4v-.24c0-.19-.05-.33-.15-.43-.1-.1-.24-.15-.43-.15h-.49ZM77.64,84.37h.46c.18,0,.32-.04.42-.13.1-.08.15-.2.15-.36s-.05-.29-.15-.39c-.1-.1-.24-.15-.42-.15h-.46v1.02Z" fill="#010101"/><path d="M83.52,84.97c0,.48-.15.88-.46,1.2s-.71.47-1.2.47-.9-.16-1.21-.47c-.31-.31-.46-.71-.46-1.2v-.71c0-.48.15-.88.46-1.19.31-.31.71-.47,1.21-.47s.89.16,1.2.47c.31.32.46.71.46,1.19v.71ZM82.61,84.26c0-.28-.07-.51-.2-.69-.13-.18-.32-.27-.56-.27s-.43.09-.57.27c-.13.18-.2.41-.2.69v.71c0,.28.07.52.2.7s.32.27.57.27.42-.09.56-.27.2-.41.2-.7v-.71Z" fill="#010101"/><path d="M84.07,86.58v-3.93h1.44c.46,0,.85.15,1.16.45.31.3.47.69.47,1.16v.71c0,.47-.16.86-.47,1.16-.31.3-.7.45-1.16.45h-1.44ZM84.98,83.35v2.52h.53c.21,0,.38-.08.51-.25s.2-.39.2-.66v-.71c0-.26-.07-.48-.2-.65s-.3-.25-.51-.25h-.53Z" fill="#010101"/><path d="M90.9,82.65v2.54c0,.45-.15.8-.45,1.06-.3.25-.69.38-1.17.38s-.88-.13-1.18-.38c-.3-.25-.45-.61-.45-1.06v-2.54h.91v2.54c0,.24.06.43.19.55.12.12.3.19.52.19s.39-.06.52-.18.18-.31.18-.55v-2.54h.91Z" fill="#010101"/><path d="M94.51,85.25v.02c.01.45-.11.79-.37,1.02-.26.23-.63.35-1.1.35s-.88-.15-1.17-.45c-.29-.3-.44-.68-.44-1.16v-.82c0-.48.14-.87.42-1.16.28-.3.66-.45,1.12-.45.5,0,.88.12,1.16.35.27.23.41.57.4,1.01v.02h-.9c0-.24-.05-.41-.15-.52s-.27-.16-.5-.16c-.2,0-.36.08-.47.25-.11.16-.16.38-.16.66v.83c0,.27.06.5.18.66.12.17.29.25.52.25.21,0,.36-.05.45-.16.09-.1.14-.28.14-.52h.89Z" fill="#010101"/><path d="M97.68,83.35h-1.04v3.22h-.91v-3.22h-1.02v-.7h2.97v.7Z" fill="#010101"/><path d="M74.12,85.23v1.35h-.91v-3.93h1.5c.47,0,.83.12,1.11.36s.41.55.41.94-.14.7-.41.93-.64.35-1.11.35h-.59ZM74.12,84.53h.59c.2,0,.35-.05.45-.16.1-.11.16-.25.16-.42s-.05-.32-.16-.43c-.1-.11-.25-.17-.45-.17h-.59v1.18Z" fill="#f3f3f3"/><path d="M77.64,85.07v1.5h-.91v-3.93h1.37c.46,0,.82.11,1.08.32.27.21.4.5.4.86,0,.2-.05.38-.16.52-.11.15-.26.26-.47.36.24.07.41.18.52.34.11.16.16.36.16.59v.25c0,.1.01.22.05.35.03.13.08.22.16.28v.05h-.94c-.07-.06-.12-.15-.14-.29-.02-.14-.03-.27-.03-.4v-.24c0-.19-.05-.33-.15-.43-.1-.1-.24-.15-.43-.15h-.49ZM77.64,84.37h.46c.18,0,.32-.04.42-.13.1-.08.15-.2.15-.36s-.05-.29-.15-.39c-.1-.1-.24-.15-.42-.15h-.46v1.02Z" fill="#f3f3f3"/><path d="M83.52,84.97c0,.48-.15.88-.46,1.2s-.71.47-1.2.47-.9-.16-1.21-.47c-.31-.31-.46-.71-.46-1.2v-.71c0-.48.15-.88.46-1.19.31-.31.71-.47,1.21-.47s.89.16,1.2.47c.31.32.46.71.46,1.19v.71ZM82.61,84.26c0-.28-.07-.51-.2-.69-.13-.18-.32-.27-.56-.27s-.43.09-.57.27c-.13.18-.2.41-.2.69v.71c0,.28.07.52.2.7s.32.27.57.27.42-.09.56-.27.2-.41.2-.7v-.71Z" fill="#f3f3f3"/><path d="M84.07,86.58v-3.93h1.44c.46,0,.85.15,1.16.45.31.3.47.69.47,1.16v.71c0,.47-.16.86-.47,1.16-.31.3-.7.45-1.16.45h-1.44ZM84.98,83.35v2.52h.53c.21,0,.38-.08.51-.25s.2-.39.2-.66v-.71c0-.26-.07-.48-.2-.65s-.3-.25-.51-.25h-.53Z" fill="#f3f3f3"/><path d="M90.9,82.65v2.54c0,.45-.15.8-.45,1.06-.3.25-.69.38-1.17.38s-.88-.13-1.18-.38c-.3-.25-.45-.61-.45-1.06v-2.54h.91v2.54c0,.24.06.43.19.55.12.12.3.19.52.19s.39-.06.52-.18.18-.31.18-.55v-2.54h.91Z" fill="#f3f3f3"/><path d="M94.51,85.25v.02c.01.45-.11.79-.37,1.02-.26.23-.63.35-1.1.35s-.88-.15-1.17-.45c-.29-.3-.44-.68-.44-1.16v-.82c0-.48.14-.87.42-1.16.28-.3.66-.45,1.12-.45.5,0,.88.12,1.16.35.27.23.41.57.4,1.01v.02h-.9c0-.24-.05-.41-.15-.52s-.27-.16-.5-.16c-.2,0-.36.08-.47.25-.11.16-.16.38-.16.66v.83c0,.27.06.5.18.66.12.17.29.25.52.25.21,0,.36-.05.45-.16.09-.1.14-.28.14-.52h.89Z" fill="#f3f3f3"/><path d="M97.68,83.35h-1.04v3.22h-.91v-3.22h-1.02v-.7h2.97v.7Z" fill="#f3f3f3"/><polygon points="85.28 99.62 85.75 100.57 86.8 100.72 86.04 101.46 86.22 102.51 85.28 102.01 84.34 102.51 84.52 101.46 83.76 100.72 84.81 100.57 85.28 99.62" fill="url(#m)"/><polygon points="82.04 99.43 82.33 100.03 82.99 100.13 82.51 100.6 82.63 101.26 82.04 100.94 81.44 101.26 81.56 100.6 81.08 100.13 81.74 100.03 82.04 99.43" fill="url(#n)"/><polygon points="88.44 99.43 88.74 100.03 89.4 100.13 88.92 100.6 89.03 101.26 88.44 100.94 87.85 101.26 87.96 100.6 87.48 100.13 88.14 100.03 88.44 99.43" fill="url(#o)"/><rect x="59.43" y="90.03" width="51.63" height=".35" fill="#333"/><rect x="59.43" y="96.89" width="51.63" height=".35" fill="#333"/></svg>