<svg width="17" height="16" viewBox="0 0 17 16" fill="none" xmlns="http://www.w3.org/2000/svg">
<path d="M14.6164 13.851C14.6674 13.8985 14.7082 13.9557 14.7365 14.0193C14.7649 14.0829 14.7801 14.1515 14.7813 14.2212C14.7826 14.2908 14.7698 14.3599 14.7437 14.4245C14.7176 14.489 14.6788 14.5476 14.6296 14.5969C14.5804 14.6461 14.5217 14.6849 14.4572 14.711C14.3926 14.7371 14.3235 14.7499 14.2539 14.7486C14.1843 14.7474 14.1156 14.7322 14.052 14.7038C13.9884 14.6755 13.9312 14.6346 13.8837 14.5837L8.02915 8.72998L2.17456 14.5837C2.07628 14.6753 1.9463 14.7251 1.812 14.7228C1.6777 14.7204 1.54956 14.666 1.45457 14.571C1.35959 14.476 1.30518 14.3479 1.30282 14.2136C1.30045 14.0793 1.3503 13.9493 1.44187 13.851L7.2956 7.99643L1.44187 2.14184C1.3503 2.04357 1.30045 1.91359 1.30282 1.77929C1.30518 1.64498 1.35959 1.51684 1.45457 1.42186C1.54956 1.32688 1.6777 1.27247 1.812 1.2701C1.9463 1.26773 2.07628 1.31758 2.17456 1.40916L8.02915 7.26288L13.8837 1.40916C13.982 1.31758 14.112 1.26773 14.2463 1.2701C14.3806 1.27247 14.5087 1.32688 14.6037 1.42186C14.6987 1.51684 14.7531 1.64498 14.7555 1.77929C14.7578 1.91359 14.708 2.04357 14.6164 2.14184L8.7627 7.99643L14.6164 13.851Z" fill="#454242"/>
</svg>
